<?xml version="1.0" standalone="no"?>
<!DOCTYPE svg PUBLIC "-//W3C//DTD SVG 20010904//EN"
 "http://www.w3.org/TR/2001/REC-SVG-20010904/DTD/svg10.dtd">
<svg version="1.0" xmlns="http://www.w3.org/2000/svg"
 width="64.000000pt" height="64.000000pt" viewBox="0 0 64.000000 64.000000"
 preserveAspectRatio="xMidYMid meet">

<g transform="translate(0.000000,64.000000) scale(0.100000,-0.100000)"
fill="#000000" stroke="none">
<path d="M211 524 c-18 -23 -21 -41 -21 -120 0 -101 8 -132 40 -162 l21 -19
-30 -13 c-31 -13 -101 -82 -101 -100 0 -20 21 -9 52 26 81 92 199 96 287 8 43
-44 61 -53 61 -34 0 18 -70 87 -101 100 l-30 13 28 29 c25 26 28 38 32 109 4
106 -1 122 -55 158 -37 26 -55 31 -104 31 -51 0 -61 -3 -79 -26z m189 -63 c0
-6 -4 -13 -10 -16 -16 -10 -12 -22 10 -28 26 -7 27 -56 2 -87 l-17 -22 -19 21
c-24 27 -64 27 -92 0 l-22 -21 -17 25 c-9 15 -15 40 -13 59 3 31 6 33 48 38
25 4 59 13 75 23 34 18 55 21 55 8z m-55 -151 c8 -13 -20 -24 -41 -16 -20 8
-9 26 16 26 10 0 22 -5 25 -10z"/>
</g>
</svg>
